<?xml version="1.0" encoding="UTF-8" standalone="no"?>
<!DOCTYPE svg PUBLIC "-//W3C//DTD SVG 1.1//EN"
 "http://www.w3.org/Graphics/SVG/1.1/DTD/svg11.dtd">
<!-- Generated by graphviz version 2.49.0 (0)
 -->
<!-- Pages: 1 -->
<svg width="478pt" height="184pt"
 viewBox="0.00 0.00 478.00 184.00" xmlns="http://www.w3.org/2000/svg" xmlns:xlink="http://www.w3.org/1999/xlink">
<g id="graph0" class="graph" transform="scale(1 1) rotate(0) translate(4 180)">
<polygon fill="white" stroke="transparent" points="-4,4 -4,-180 474,-180 474,4 -4,4"/>
<g id="clust1" class="cluster">
<title>cluster_1</title>
<text text-anchor="middle" x="67" y="-152.8" font-family="Times,serif" font-size="14.00">1. Select edge</text>
</g>
<g id="clust3" class="cluster">
<title>cluster_2</title>
<text text-anchor="middle" x="182.5" y="-152.8" font-family="Times,serif" font-size="14.00">2. Contract</text>
</g>
<g id="clust5" class="cluster">
<title>cluster_3</title>
<text text-anchor="middle" x="298" y="-152.8" font-family="Times,serif" font-size="14.00">3. Select edge</text>
</g>
<g id="clust7" class="cluster">
<title>cluster_4</title>
<text text-anchor="middle" x="413.5" y="-152.8" font-family="Times,serif" font-size="14.00">4. Contract</text>
</g>
<!-- a1 -->
<g id="node1" class="node">
<title>a1</title>
<ellipse fill="none" stroke="black" cx="62" cy="-136" rx="9" ry="9"/>
<text text-anchor="middle" x="62" y="-133.8" font-family="Times,serif" font-size="9.00">a</text>
</g>
<!-- b1 -->
<g id="node2" class="node">
<title>b1</title>
<ellipse fill="none" stroke="black" cx="62" cy="-76.5" rx="9" ry="9"/>
<text text-anchor="middle" x="62" y="-74.3" font-family="Times,serif" font-size="9.00">b</text>
</g>
<!-- a1&#45;&#45;b1 -->
<g id="edge1" class="edge">
<title>a1&#45;&#45;b1</title>
<path fill="none" stroke="black" d="M62,-126.52C62,-115.52 62,-96.48 62,-85.65"/>
</g>
<!-- c1 -->
<g id="node3" class="node">
<title>c1</title>
<ellipse fill="none" stroke="black" cx="44" cy="-17" rx="9" ry="9"/>
<text text-anchor="middle" x="44" y="-14.8" font-family="Times,serif" font-size="9.00">c</text>
</g>
<!-- b1&#45;&#45;c1 -->
<g id="edge3" class="edge">
<title>b1&#45;&#45;c1</title>
<path fill="none" stroke="red" d="M59.5,-67.5C56.06,-56.52 49.91,-36.88 46.48,-25.93"/>
</g>
<!-- d1 -->
<g id="node4" class="node">
<title>d1</title>
<ellipse fill="none" stroke="black" cx="80" cy="-17" rx="9" ry="9"/>
<text text-anchor="middle" x="80" y="-14.8" font-family="Times,serif" font-size="9.00">d</text>
</g>
<!-- b1&#45;&#45;d1 -->
<g id="edge2" class="edge">
<title>b1&#45;&#45;d1</title>
<path fill="none" stroke="black" d="M64.5,-67.5C67.94,-56.52 74.09,-36.88 77.52,-25.93"/>
</g>
<!-- c1&#45;&#45;d1 -->
<g id="edge4" class="edge">
<title>c1&#45;&#45;d1</title>
<path fill="none" stroke="black" d="M53,-17C58.91,-17 64.81,-17 70.72,-17"/>
</g>
<!-- a2 -->
<g id="node5" class="node">
<title>a2</title>
<ellipse fill="none" stroke="black" cx="163" cy="-136" rx="9" ry="9"/>
<text text-anchor="middle" x="163" y="-133.8" font-family="Times,serif" font-size="9.00">a</text>
</g>
<!-- b2 -->
<g id="node6" class="node">
<title>b2</title>
<ellipse fill="none" stroke="black" cx="163" cy="-76.5" rx="12.5" ry="12.5"/>
<text text-anchor="middle" x="163" y="-74.3" font-family="Times,serif" font-size="9.00">b, c</text>
</g>
<!-- a2&#45;&#45;b2 -->
<g id="edge5" class="edge">
<title>a2&#45;&#45;b2</title>
<path fill="none" stroke="black" d="M163,-126.52C163,-116.64 163,-100.29 163,-89.21"/>
</g>
<!-- d2 -->
<g id="node7" class="node">
<title>d2</title>
<ellipse fill="none" stroke="black" cx="189" cy="-17" rx="9" ry="9"/>
<text text-anchor="middle" x="189" y="-14.8" font-family="Times,serif" font-size="9.00">d</text>
</g>
<!-- b2&#45;&#45;d2 -->
<g id="edge6" class="edge">
<title>b2&#45;&#45;d2</title>
<path fill="none" stroke="black" stroke-width="2" d="M167.89,-64.68C173.07,-53.23 181.1,-35.46 185.62,-25.47"/>
</g>
<!-- c2 -->
<!-- b2&#45;&#45;c2 -->
<!-- c2&#45;&#45;d2 -->
<!-- a3 -->
<g id="node9" class="node">
<title>a3</title>
<ellipse fill="none" stroke="black" cx="268" cy="-136" rx="9" ry="9"/>
<text text-anchor="middle" x="268" y="-133.8" font-family="Times,serif" font-size="9.00">a</text>
</g>
<!-- b3 -->
<g id="node10" class="node">
<title>b3</title>
<ellipse fill="none" stroke="black" cx="268" cy="-76.5" rx="12.5" ry="12.5"/>
<text text-anchor="middle" x="268" y="-74.3" font-family="Times,serif" font-size="9.00">b, c</text>
</g>
<!-- a3&#45;&#45;b3 -->
<g id="edge9" class="edge">
<title>a3&#45;&#45;b3</title>
<path fill="none" stroke="black" d="M268,-126.52C268,-116.64 268,-100.29 268,-89.21"/>
</g>
<!-- d3 -->
<g id="node11" class="node">
<title>d3</title>
<ellipse fill="none" stroke="black" cx="294" cy="-17" rx="9" ry="9"/>
<text text-anchor="middle" x="294" y="-14.8" font-family="Times,serif" font-size="9.00">d</text>
</g>
<!-- b3&#45;&#45;d3 -->
<g id="edge10" class="edge">
<title>b3&#45;&#45;d3</title>
<path fill="none" stroke="red" stroke-width="2" d="M272.89,-64.68C278.07,-53.23 286.1,-35.46 290.62,-25.47"/>
</g>
<!-- c3 -->
<!-- b3&#45;&#45;c3 -->
<!-- c3&#45;&#45;d3 -->
<!-- a4 -->
<g id="node13" class="node">
<title>a4</title>
<ellipse fill="none" stroke="black" cx="413" cy="-136" rx="9" ry="9"/>
<text text-anchor="middle" x="413" y="-133.8" font-family="Times,serif" font-size="9.00">a</text>
</g>
<!-- b4 -->
<g id="node14" class="node">
<title>b4</title>
<ellipse fill="none" stroke="black" cx="413" cy="-76.5" rx="14.5" ry="14.5"/>
<text text-anchor="middle" x="413" y="-74.3" font-family="Times,serif" font-size="9.00">b, c, d</text>
</g>
<!-- a4&#45;&#45;b4 -->
<g id="edge13" class="edge">
<title>a4&#45;&#45;b4</title>
<path fill="none" stroke="black" d="M413,-126.52C413,-117.27 413,-102.33 413,-91.37"/>
</g>
</g>
</svg>
