<?xml version="1.0" encoding="UTF-8" standalone="no"?>
<!DOCTYPE svg PUBLIC "-//W3C//DTD SVG 1.1//EN"
 "http://www.w3.org/Graphics/SVG/1.1/DTD/svg11.dtd">
<!-- Generated by graphviz version 2.49.0 (0)
 -->
<!-- Pages: 1 -->
<svg width="115pt" height="141pt"
 viewBox="0.00 0.00 115.00 141.00" xmlns="http://www.w3.org/2000/svg" xmlns:xlink="http://www.w3.org/1999/xlink">
<g id="graph0" class="graph" transform="scale(1 1) rotate(0) translate(4 137)">
<!-- a -->
<g id="node1" class="node">
<title>a</title>
<ellipse fill="#ff8080" stroke="red" cx="61.23" cy="-114.67" rx="9" ry="9"/>
<text text-anchor="middle" x="61.23" y="-112.47" font-family="Times,serif" font-size="9.00">s</text>
</g>
<!-- b -->
<g id="node3" class="node">
<title>b</title>
<ellipse fill="none" stroke="blue" cx="88.84" cy="-55.2" rx="9" ry="9"/>
</g>
<!-- a&#45;&#45;b -->
<!-- c -->
<g id="node4" class="node">
<title>c</title>
<ellipse fill="lightgray" stroke="red" cx="34.22" cy="-76.36" rx="9" ry="9"/>
<text text-anchor="middle" x="34.22" y="-74.16" font-family="Times,serif" font-size="9.00">v</text>
</g>
<!-- a&#45;&#45;c -->
<g id="edge2" class="edge">
<title>a&#45;&#45;c</title>
<path fill="none" stroke="red" d="M56.02,-107.28C51.24,-100.5 44.19,-90.5 39.41,-83.72"/>
</g>
<!-- d -->
<g id="node5" class="node">
<title>d</title>
<ellipse fill="none" stroke="red" cx="98.35" cy="-104.4" rx="9" ry="9"/>
</g>
<!-- a&#45;&#45;d -->
<g id="edge5" class="edge">
<title>a&#45;&#45;d</title>
<path fill="none" stroke="red" d="M70.21,-112.18C76.05,-110.57 83.62,-108.47 89.44,-106.86"/>
</g>
<!-- f -->
<g id="node6" class="node">
<title>f</title>
<ellipse fill="none" stroke="red" cx="9.32" cy="-124.05" rx="9" ry="9"/>
</g>
<!-- a&#45;&#45;f -->
<g id="edge4" class="edge">
<title>a&#45;&#45;f</title>
<path fill="none" stroke="red" d="M52.19,-116.3C42.66,-118.02 27.75,-120.72 18.26,-122.43"/>
</g>
<!-- g -->
<g id="node2" class="node">
<title>g</title>
<ellipse fill="lightblue" stroke="blue" cx="88.34" cy="-9.34" rx="9" ry="9"/>
<text text-anchor="middle" x="88.34" y="-7.14" font-family="Times,serif" font-size="9.00">t</text>
</g>
<!-- b&#45;&#45;g -->
<g id="edge10" class="edge">
<title>b&#45;&#45;g</title>
<path fill="none" stroke="blue" d="M88.73,-45.92C88.65,-37.96 88.53,-26.56 88.44,-18.61"/>
</g>
<!-- b&#45;&#45;d -->
<!-- e -->
<g id="node7" class="node">
<title>e</title>
<ellipse fill="none" stroke="blue" cx="47.32" cy="-31.42" rx="9" ry="9"/>
</g>
<!-- b&#45;&#45;e -->
<g id="edge7" class="edge">
<title>b&#45;&#45;e</title>
<path fill="none" stroke="blue" d="M80.83,-50.61C73.48,-46.4 62.64,-40.2 55.3,-35.99"/>
</g>
<!-- c&#45;&#45;d -->
<g id="edge3" class="edge">
<title>c&#45;&#45;d</title>
<path fill="none" stroke="red" d="M42.6,-80.03C54.83,-85.37 77.42,-95.25 89.76,-100.64"/>
</g>
<!-- c&#45;&#45;f -->
<g id="edge9" class="edge">
<title>c&#45;&#45;f</title>
<path fill="none" stroke="red" d="M29.88,-84.67C25.31,-93.42 18.16,-107.12 13.61,-115.84"/>
</g>
<!-- c&#45;&#45;e -->
<!-- e&#45;&#45;g -->
<g id="edge11" class="edge">
<title>e&#45;&#45;g</title>
<path fill="none" stroke="blue" d="M55.62,-26.96C62.83,-23.07 73.21,-17.49 80.33,-13.65"/>
</g>
</g>
</svg>
