<?xml version="1.0" encoding="UTF-8" standalone="no"?>
<!DOCTYPE svg PUBLIC "-//W3C//DTD SVG 1.1//EN"
 "http://www.w3.org/Graphics/SVG/1.1/DTD/svg11.dtd">
<!-- Generated by graphviz version 2.49.0 (0)
 -->
<!-- Pages: 1 -->
<svg width="156pt" height="150pt"
 viewBox="0.00 0.00 156.00 150.00" xmlns="http://www.w3.org/2000/svg" xmlns:xlink="http://www.w3.org/1999/xlink">
<g id="graph0" class="graph" transform="scale(1 1) rotate(0) translate(4 146)">
<polygon fill="white" stroke="transparent" points="-4,4 -4,-146 152,-146 152,4 -4,4"/>
<!-- s -->
<g id="node1" class="node">
<title>s</title>
<ellipse fill="none" stroke="black" cx="12.5" cy="-71" rx="12.5" ry="12.5"/>
<text text-anchor="middle" x="12.5" y="-67.9" font-family="Times,serif" font-size="12.00">s</text>
</g>
<!-- a -->
<g id="node3" class="node">
<title>a</title>
<ellipse fill="none" stroke="black" cx="74" cy="-135" rx="7" ry="7"/>
</g>
<!-- s&#45;&#45;a -->
<g id="edge1" class="edge">
<title>s&#45;&#45;a</title>
<path fill="none" stroke="black" stroke-width="2" d="M21.77,-79.9C34.55,-93.64 58.63,-119.54 68.55,-130.22"/>
<text text-anchor="middle" x="46" y="-110.6" font-family="Times,serif" font-size="8.00">2</text>
</g>
<!-- b -->
<g id="node4" class="node">
<title>b</title>
<ellipse fill="none" stroke="black" cx="74" cy="-103" rx="7" ry="7"/>
</g>
<!-- s&#45;&#45;b -->
<g id="edge3" class="edge">
<title>s&#45;&#45;b</title>
<path fill="none" stroke="black" stroke-width="2" d="M23.86,-76.57C36.52,-83.38 57.45,-94.64 67.41,-99.99"/>
</g>
<!-- c -->
<g id="node5" class="node">
<title>c</title>
<ellipse fill="none" stroke="black" cx="74" cy="-71" rx="7" ry="7"/>
</g>
<!-- s&#45;&#45;c -->
<g id="edge5" class="edge">
<title>s&#45;&#45;c</title>
<path fill="none" stroke="black" stroke-width="2" d="M25.26,-71C37.72,-71 56.93,-71 66.75,-71"/>
</g>
<!-- d -->
<g id="node6" class="node">
<title>d</title>
<ellipse fill="none" stroke="black" cx="74" cy="-39" rx="7" ry="7"/>
</g>
<!-- s&#45;&#45;d -->
<g id="edge7" class="edge">
<title>s&#45;&#45;d</title>
<path fill="none" stroke="black" stroke-width="2" d="M23.86,-65.43C36.52,-58.62 57.45,-47.36 67.41,-42.01"/>
</g>
<!-- e -->
<g id="node7" class="node">
<title>e</title>
<ellipse fill="none" stroke="black" cx="74" cy="-7" rx="7" ry="7"/>
</g>
<!-- s&#45;&#45;e -->
<g id="edge9" class="edge">
<title>s&#45;&#45;e</title>
<path fill="none" stroke="black" stroke-width="2" d="M21.77,-62.1C34.55,-48.36 58.63,-22.46 68.55,-11.78"/>
</g>
<!-- t -->
<g id="node2" class="node">
<title>t</title>
<ellipse fill="none" stroke="black" cx="135.5" cy="-71" rx="12.5" ry="12.5"/>
<text text-anchor="middle" x="135.5" y="-67.9" font-family="Times,serif" font-size="12.00">t</text>
</g>
<!-- a&#45;&#45;t -->
<g id="edge2" class="edge">
<title>a&#45;&#45;t</title>
<path fill="none" stroke="black" d="M79.28,-130.4C89.08,-119.85 113.32,-93.78 126.18,-79.95"/>
<text text-anchor="middle" x="102" y="-110.6" font-family="Times,serif" font-size="8.00">1</text>
</g>
<!-- b&#45;&#45;t -->
<g id="edge4" class="edge">
<title>b&#45;&#45;t</title>
<path fill="none" stroke="black" d="M80.49,-100.05C90.39,-94.72 111.37,-83.44 124.07,-76.61"/>
</g>
<!-- c&#45;&#45;t -->
<g id="edge6" class="edge">
<title>c&#45;&#45;t</title>
<path fill="none" stroke="black" d="M81.37,-71C91.2,-71 110.24,-71 122.66,-71"/>
</g>
<!-- d&#45;&#45;t -->
<g id="edge8" class="edge">
<title>d&#45;&#45;t</title>
<path fill="none" stroke="black" d="M80.49,-41.95C90.39,-47.28 111.37,-58.56 124.07,-65.39"/>
</g>
<!-- e&#45;&#45;t -->
<g id="edge10" class="edge">
<title>e&#45;&#45;t</title>
<path fill="none" stroke="black" d="M79.28,-11.6C89.08,-22.15 113.32,-48.22 126.18,-62.05"/>
</g>
</g>
</svg>
