<?xml version="1.0" encoding="UTF-8" standalone="no"?>
<!DOCTYPE svg PUBLIC "-//W3C//DTD SVG 1.1//EN"
 "http://www.w3.org/Graphics/SVG/1.1/DTD/svg11.dtd">
<!-- Generated by graphviz version 2.49.0 (0)
 -->
<!-- Pages: 1 -->
<svg width="219pt" height="241pt"
 viewBox="0.00 0.00 219.37 241.02" xmlns="http://www.w3.org/2000/svg" xmlns:xlink="http://www.w3.org/1999/xlink">
<g id="graph0" class="graph" transform="scale(1 1) rotate(0) translate(4 237.02)">
<polygon fill="white" stroke="transparent" points="-4,4 -4,-237.02 215.37,-237.02 215.37,4 -4,4"/>
<!-- a -->
<g id="node1" class="node">
<title>a</title>
<ellipse fill="none" stroke="black" cx="120.89" cy="-177.13" rx="18" ry="18"/>
</g>
<!-- b -->
<g id="node3" class="node">
<title>b</title>
<ellipse fill="none" stroke="black" cx="142.68" cy="-88.27" rx="18" ry="18"/>
</g>
<!-- a&#45;&#45;b -->
<g id="edge1" class="edge">
<title>a&#45;&#45;b</title>
<path fill="none" stroke="gray" d="M125.2,-159.57C129.02,-143.99 134.57,-121.36 138.38,-105.79"/>
</g>
<!-- c -->
<g id="node4" class="node">
<title>c</title>
<ellipse fill="none" stroke="black" cx="40.9" cy="-144.45" rx="18" ry="18"/>
</g>
<!-- a&#45;&#45;c -->
<g id="edge2" class="edge">
<title>a&#45;&#45;c</title>
<path fill="none" stroke="red" stroke-width="2" d="M103.93,-170.2C90.26,-164.62 71.15,-156.81 57.57,-151.26"/>
</g>
<!-- d -->
<g id="node5" class="node">
<title>d</title>
<ellipse fill="none" stroke="black" cx="193.37" cy="-143.91" rx="18" ry="18"/>
</g>
<!-- a&#45;&#45;d -->
<g id="edge5" class="edge">
<title>a&#45;&#45;d</title>
<path fill="none" stroke="red" stroke-width="2" d="M137.34,-169.59C149.2,-164.15 165.14,-156.85 176.99,-151.42"/>
</g>
<!-- f -->
<g id="node6" class="node">
<title>f</title>
<ellipse fill="none" stroke="black" cx="18" cy="-215.02" rx="18" ry="18"/>
</g>
<!-- a&#45;&#45;f -->
<g id="edge4" class="edge">
<title>a&#45;&#45;f</title>
<path fill="none" stroke="red" stroke-width="2" d="M103.9,-183.39C84.84,-190.41 54.09,-201.73 35.02,-208.76"/>
</g>
<!-- g -->
<g id="node2" class="node">
<title>g</title>
<ellipse fill="none" stroke="black" cx="111.69" cy="-18" rx="18" ry="18"/>
</g>
<!-- b&#45;&#45;g -->
<g id="edge10" class="edge">
<title>b&#45;&#45;g</title>
<path fill="none" stroke="gray" d="M135.34,-71.61C130.4,-60.41 123.91,-45.71 118.98,-34.53"/>
</g>
<!-- b&#45;&#45;d -->
<g id="edge6" class="edge">
<title>b&#45;&#45;d</title>
<path fill="none" stroke="gray" d="M154.95,-101.74C162.92,-110.48 173.26,-121.84 181.21,-130.56"/>
</g>
<!-- e -->
<g id="node7" class="node">
<title>e</title>
<ellipse fill="none" stroke="black" cx="25.77" cy="-67.67" rx="18" ry="18"/>
</g>
<!-- b&#45;&#45;e -->
<g id="edge7" class="edge">
<title>b&#45;&#45;e</title>
<path fill="none" stroke="red" stroke-width="2" d="M124.92,-85.14C102.95,-81.27 65.74,-74.71 43.69,-70.83"/>
</g>
<!-- c&#45;&#45;d -->
<g id="edge3" class="edge">
<title>c&#45;&#45;d</title>
<path fill="none" stroke="gray" d="M58.99,-144.39C88.33,-144.28 145.97,-144.08 175.3,-143.97"/>
</g>
<!-- c&#45;&#45;f -->
<g id="edge9" class="edge">
<title>c&#45;&#45;f</title>
<path fill="none" stroke="gray" d="M35.24,-161.9C31.69,-172.84 27.13,-186.88 23.6,-197.78"/>
</g>
<!-- c&#45;&#45;e -->
<g id="edge8" class="edge">
<title>c&#45;&#45;e</title>
<path fill="none" stroke="gray" d="M37.39,-126.64C34.94,-114.24 31.7,-97.77 29.26,-85.38"/>
</g>
<!-- e&#45;&#45;g -->
<g id="edge11" class="edge">
<title>e&#45;&#45;g</title>
<path fill="none" stroke="red" stroke-width="2" d="M41.53,-58.56C57.03,-49.6 80.56,-35.99 96.03,-27.05"/>
</g>
</g>
</svg>
