<?xml version="1.0" encoding="UTF-8" standalone="no"?>
<!DOCTYPE svg PUBLIC "-//W3C//DTD SVG 1.1//EN"
 "http://www.w3.org/Graphics/SVG/1.1/DTD/svg11.dtd">
<!-- Generated by graphviz version 2.49.0 (0)
 -->
<!-- Pages: 1 -->
<svg width="298pt" height="180pt"
 viewBox="0.00 0.00 298.00 180.00" xmlns="http://www.w3.org/2000/svg" xmlns:xlink="http://www.w3.org/1999/xlink">
<g id="graph0" class="graph" transform="scale(1 1) rotate(0) translate(4 176)">
<polygon fill="white" stroke="transparent" points="-4,4 -4,-176 294,-176 294,4 -4,4"/>
<g id="clust1" class="cluster">
<title>cluster_1</title>
</g>
<g id="clust2" class="cluster">
<title>cluster_2</title>
</g>
<!-- a1 -->
<g id="node1" class="node">
<title>a1</title>
<ellipse fill="none" stroke="black" cx="72.47" cy="-141.31" rx="12.5" ry="12.5"/>
<text text-anchor="middle" x="72.47" y="-137.61" font-family="Times,serif" font-size="14.00">s</text>
</g>
<!-- b1 -->
<g id="node3" class="node">
<title>b1</title>
<ellipse fill="none" stroke="black" cx="100.07" cy="-81.84" rx="12.5" ry="12.5"/>
</g>
<!-- a1&#45;&#45;b1 -->
<g id="edge1" class="edge">
<title>a1&#45;&#45;b1</title>
<path fill="none" stroke="gray" d="M77.79,-129.84C82.68,-119.31 89.88,-103.79 94.77,-93.27"/>
</g>
<!-- c1 -->
<g id="node4" class="node">
<title>c1</title>
<ellipse fill="none" stroke="black" cx="45.46" cy="-103" rx="12.5" ry="12.5"/>
</g>
<!-- a1&#45;&#45;c1 -->
<g id="edge2" class="edge">
<title>a1&#45;&#45;c1</title>
<path fill="none" stroke="red" stroke-width="2" d="M65.09,-130.84C61.27,-125.44 56.64,-118.86 52.83,-113.46"/>
</g>
<!-- d1 -->
<g id="node5" class="node">
<title>d1</title>
<ellipse fill="none" stroke="black" cx="109.58" cy="-131.04" rx="12.5" ry="12.5"/>
</g>
<!-- a1&#45;&#45;d1 -->
<g id="edge5" class="edge">
<title>a1&#45;&#45;d1</title>
<path fill="none" stroke="red" stroke-width="2" d="M84.62,-137.95C88.76,-136.8 93.39,-135.52 97.53,-134.38"/>
</g>
<!-- f1 -->
<g id="node6" class="node">
<title>f1</title>
<ellipse fill="none" stroke="black" cx="20.56" cy="-150.69" rx="12.5" ry="12.5"/>
</g>
<!-- a1&#45;&#45;f1 -->
<g id="edge4" class="edge">
<title>a1&#45;&#45;f1</title>
<path fill="none" stroke="red" stroke-width="2" d="M60.16,-143.53C52.01,-145.01 41.34,-146.93 33.13,-148.42"/>
</g>
<!-- g1 -->
<g id="node2" class="node">
<title>g1</title>
<ellipse fill="none" stroke="black" cx="99.58" cy="-35.98" rx="12.5" ry="12.5"/>
<text text-anchor="middle" x="99.58" y="-32.28" font-family="Times,serif" font-size="14.00">t</text>
</g>
<!-- b1&#45;&#45;g1 -->
<g id="edge10" class="edge">
<title>b1&#45;&#45;g1</title>
<path fill="none" stroke="gray" d="M99.94,-69.31C99.87,-62.84 99.78,-54.97 99.71,-48.5"/>
</g>
<!-- b1&#45;&#45;d1 -->
<g id="edge6" class="edge">
<title>b1&#45;&#45;d1</title>
<path fill="none" stroke="gray" d="M102.47,-94.25C103.9,-101.66 105.72,-111.03 107.15,-118.46"/>
</g>
<!-- e1 -->
<g id="node7" class="node">
<title>e1</title>
<ellipse fill="none" stroke="black" cx="58.56" cy="-58.06" rx="12.5" ry="12.5"/>
</g>
<!-- b1&#45;&#45;e1 -->
<g id="edge7" class="edge">
<title>b1&#45;&#45;e1</title>
<path fill="none" stroke="red" stroke-width="2" d="M89.17,-75.59C83.11,-72.13 75.6,-67.83 69.54,-64.35"/>
</g>
<!-- c1&#45;&#45;d1 -->
<g id="edge3" class="edge">
<title>c1&#45;&#45;d1</title>
<path fill="none" stroke="gray" d="M56.92,-108.01C68.45,-113.06 86.14,-120.79 97.79,-125.88"/>
</g>
<!-- c1&#45;&#45;f1 -->
<g id="edge9" class="edge">
<title>c1&#45;&#45;f1</title>
<path fill="none" stroke="gray" d="M39.43,-114.55C35.46,-122.15 30.28,-132.06 26.36,-139.58"/>
</g>
<!-- c1&#45;&#45;e1 -->
<g id="edge8" class="edge">
<title>c1&#45;&#45;e1</title>
<path fill="none" stroke="gray" d="M49.04,-90.72C50.89,-84.38 53.14,-76.67 54.98,-70.33"/>
</g>
<!-- e1&#45;&#45;g1 -->
<g id="edge11" class="edge">
<title>e1&#45;&#45;g1</title>
<path fill="none" stroke="red" stroke-width="2" d="M69.77,-52.03C75.56,-48.92 82.6,-45.12 88.38,-42.01"/>
</g>
<!-- a2 -->
<g id="node8" class="node">
<title>a2</title>
<ellipse fill="none" stroke="black" cx="232.47" cy="-125.31" rx="12.5" ry="12.5"/>
<text text-anchor="middle" x="232.47" y="-121.61" font-family="Times,serif" font-size="14.00">s</text>
</g>
<!-- b2 -->
<g id="node10" class="node">
<title>b2</title>
<ellipse fill="none" stroke="black" cx="260.07" cy="-65.84" rx="12.5" ry="12.5"/>
</g>
<!-- a2&#45;&#45;b2 -->
<g id="edge12" class="edge">
<title>a2&#45;&#45;b2</title>
<path fill="none" stroke="gray" d="M237.79,-113.84C242.68,-103.31 249.88,-87.79 254.77,-77.27"/>
</g>
<!-- c2 -->
<g id="node11" class="node">
<title>c2</title>
<ellipse fill="none" stroke="black" cx="205.46" cy="-87" rx="12.5" ry="12.5"/>
</g>
<!-- a2&#45;&#45;c2 -->
<g id="edge13" class="edge">
<title>a2&#45;&#45;c2</title>
<path fill="none" stroke="gray" d="M225.09,-114.84C221.27,-109.44 216.64,-102.86 212.83,-97.46"/>
</g>
<!-- d2 -->
<g id="node12" class="node">
<title>d2</title>
<ellipse fill="none" stroke="black" cx="269.58" cy="-115.04" rx="12.5" ry="12.5"/>
</g>
<!-- a2&#45;&#45;d2 -->
<g id="edge16" class="edge">
<title>a2&#45;&#45;d2</title>
<path fill="none" stroke="red" stroke-width="2" d="M244.62,-121.95C248.76,-120.8 253.39,-119.52 257.53,-118.38"/>
</g>
<!-- f2 -->
<g id="node13" class="node">
<title>f2</title>
<ellipse fill="none" stroke="black" cx="180.56" cy="-134.69" rx="12.5" ry="12.5"/>
</g>
<!-- a2&#45;&#45;f2 -->
<g id="edge15" class="edge">
<title>a2&#45;&#45;f2</title>
<path fill="none" stroke="gray" d="M220.16,-127.53C212.01,-129.01 201.34,-130.93 193.13,-132.42"/>
</g>
<!-- g2 -->
<g id="node9" class="node">
<title>g2</title>
<ellipse fill="none" stroke="black" cx="259.58" cy="-19.98" rx="12.5" ry="12.5"/>
<text text-anchor="middle" x="259.58" y="-16.28" font-family="Times,serif" font-size="14.00">t</text>
</g>
<!-- b2&#45;&#45;g2 -->
<g id="edge21" class="edge">
<title>b2&#45;&#45;g2</title>
<path fill="none" stroke="red" stroke-width="2" d="M259.94,-53.31C259.87,-46.84 259.78,-38.97 259.71,-32.5"/>
</g>
<!-- b2&#45;&#45;d2 -->
<g id="edge17" class="edge">
<title>b2&#45;&#45;d2</title>
<path fill="none" stroke="red" stroke-width="2" d="M262.47,-78.25C263.9,-85.66 265.72,-95.03 267.15,-102.46"/>
</g>
<!-- e2 -->
<g id="node14" class="node">
<title>e2</title>
<ellipse fill="none" stroke="black" cx="218.56" cy="-42.06" rx="12.5" ry="12.5"/>
</g>
<!-- b2&#45;&#45;e2 -->
<g id="edge18" class="edge">
<title>b2&#45;&#45;e2</title>
<path fill="none" stroke="gray" d="M249.17,-59.59C243.11,-56.13 235.6,-51.83 229.54,-48.35"/>
</g>
<!-- c2&#45;&#45;d2 -->
<g id="edge14" class="edge">
<title>c2&#45;&#45;d2</title>
<path fill="none" stroke="gray" d="M216.92,-92.01C228.45,-97.06 246.14,-104.79 257.79,-109.88"/>
</g>
<!-- c2&#45;&#45;f2 -->
<g id="edge20" class="edge">
<title>c2&#45;&#45;f2</title>
<path fill="none" stroke="red" stroke-width="2" d="M199.43,-98.55C195.46,-106.15 190.28,-116.06 186.36,-123.58"/>
</g>
<!-- c2&#45;&#45;e2 -->
<g id="edge19" class="edge">
<title>c2&#45;&#45;e2</title>
<path fill="none" stroke="red" stroke-width="2" d="M209.04,-74.72C210.89,-68.38 213.14,-60.67 214.98,-54.33"/>
</g>
<!-- e2&#45;&#45;g2 -->
<g id="edge22" class="edge">
<title>e2&#45;&#45;g2</title>
<path fill="none" stroke="gray" d="M229.77,-36.03C235.56,-32.92 242.6,-29.12 248.38,-26.01"/>
</g>
</g>
</svg>
